<svg xmlns="http://www.w3.org/2000/svg" width="40" height="40" viewBox="0 0 40 40">
    <g fill="none" fill-rule="evenodd">
        <path d="M0 0L40 0 40 40 0 40z"/>
        <path fill="#F34228" fill-rule="nonzero" d="M20 3.333C10.8 3.333 3.333 10.8 3.333 20c0 9.2 7.467 16.667 16.667 16.667 9.2 0 16.667-7.467 16.667-16.667C36.667 10.8 29.2 3.333 20 3.333zm0 5c2.767 0 5 2.234 5 5 0 2.767-2.233 5-5 5s-5-2.233-5-5c0-2.766 2.233-5 5-5zM20 32c-4.167 0-7.85-2.133-10-5.367.05-3.316 6.667-5.133 10-5.133 3.317 0 9.95 1.817 10 5.133C27.85 29.867 24.167 32 20 32z"/>
    </g>
</svg>
