<svg
  xmlns="http://www.w3.org/2000/svg"
  viewBox="0 0 64 64"
  width="64"
  height="64"
  style="position: relative;"
>
  <!-- Cotton Icon -->
  <path
    d="M32 0c-10.67 0-19 8.33-19 19 0 5.17 2.15 10.33 5.53 14.78C13.22 36.83 10 43.4 10 50c0 8.84 7.16 16 16 16h12c8.84 0 16-7.16 16-16 0-6.6-3.22-13.17-7.53-16.22C50.85 29.33 53 24.17 53 19 53 8.33 44.67 0 32 0zm0 4c9.67 0 17 7.33 17 15 0 4.17-1.68 8.33-4.7 11.07C42.99 29.12 38.07 28 32 28c-6.07 0-11.99 1.12-14.3 2.07C16.68 27.33 15 23.17 15 19c0-7.67 7.33-15 17-15zm0 40c-6.22 0-11.5-4.5-11.5-10s5.28-10 11.5-10 11.5 4.5 11.5 10-5.28 10-11.5 10zM30.5 54c0-3.31 2.69-6 6-6s6 2.69 6 6c0 3.31-2.69 6-6 6s-6-2.69-6-6zm15 0c0-1.74-.66-3.36-1.78-4.58C38.32 50.67 37 56 32 56c-3.56 0-6.55-2.94-6.73-6h-5.54c-.16 3.06-3.14 6-6.73 6-5 0-6.32-5.33-6.5-6.58C6.77 52.72 0 56.04 0 62c0 2.21 1.79 4 4 4h56c2.21 0 4-1.79 4-4 0-5.96-6.77-9.28-11.5-14.58C48.66 50.64 48 52.36 48 54c0 1.74.66 3.36 1.78 4.58C47.32 54 46 57.67 46 62c0 2.21 1.79 4 4 4h10c2.21 0 4-1.79 4-4 0-5.96-6.77-9.28-11.5-14.58C52.66 50.64 52 52.36 52 54z"
    fill="#FFFFFF"
  />
  <!-- Error Overlay -->
  <path
    d="M32 0L0 64h64L32 0zm0 8l24 48H8L32 8z"
    fill="#FF0000"
  />
  <circle cx="32" cy="48" r="2" fill="#FFFF00" />
  <rect x="31" y="20" width="2" height="20" fill="#FFFF00" />
</svg>
